<svg width="72" height="79" viewBox="0 0 72 79" fill="none" xmlns="http://www.w3.org/2000/svg">
<path d="M0 39.4996C0 50.9749 16.1179 60.2784 36 60.2784C55.8821 60.2784 72 50.9749 72 39.4996C72 28.0242 55.8816 18.7207 36 18.7207C16.1179 18.7207 0 28.0242 0 39.4996Z" fill="url(#paint0_radial_539_1222)"/>
<path d="M36 58.7354C55.1053 58.7354 70.5938 50.1226 70.5938 39.4996C70.5938 28.8753 55.1053 20.2637 36 20.2637C16.8947 20.2637 1.40625 28.8753 1.40625 39.4996C1.40625 50.1226 16.8947 58.7354 36 58.7354Z" fill="#777BB3"/>
<path d="M19.5593 41.8844C21.1304 41.8844 22.3026 41.5665 23.0446 40.9401C23.7792 40.3192 24.286 39.2447 24.5521 37.7461C24.7996 36.3451 24.7051 35.3675 24.2708 34.8392C23.8276 34.2998 22.8685 34.0264 21.4206 34.0264H18.9096L17.5186 41.8844H19.5593ZM11.3474 51.5637C11.2898 51.5637 11.2329 51.5496 11.1808 51.5225C11.1287 51.4955 11.0828 51.4561 11.0462 51.4073C11.0097 51.3584 10.9834 51.3013 10.9693 51.24C10.9553 51.1787 10.9537 51.1147 10.9649 51.0527L14.6532 30.23C14.6706 30.1327 14.7183 30.045 14.788 29.9819C14.8577 29.9187 14.9453 29.8841 15.0357 29.8838H22.9861C25.4847 29.8838 27.3443 30.6281 28.5137 32.0964C29.6882 33.5715 30.0516 35.6354 29.5921 38.2282C29.4047 39.2842 29.083 40.2649 28.6358 41.1438C28.1703 42.0478 27.5763 42.8645 26.8763 43.5631C26.0151 44.4469 25.0403 45.0888 23.9811 45.4659C22.9394 45.8387 21.6006 46.0276 20.0042 46.0276H16.7845L15.8654 51.2169C15.848 51.3145 15.8003 51.4025 15.7303 51.4658C15.6603 51.5291 15.5724 51.5637 15.4817 51.5637H11.3474Z" fill="black"/>
<path d="M19.2318 34.4549H21.4205C23.1682 34.4549 23.7751 34.8758 23.9815 35.127C24.323 35.543 24.3882 36.4213 24.1677 37.6649C23.9208 39.0579 23.4629 40.046 22.8065 40.6002C22.1348 41.1681 21.0413 41.4557 19.5592 41.4557H17.992L19.2323 34.4555L19.2318 34.4549ZM22.9859 29.4557H15.0361C14.8548 29.4557 14.6791 29.5249 14.5392 29.6513C14.3992 29.7777 14.3037 29.9536 14.2688 30.1488L10.5805 50.9721C10.5587 51.0961 10.5622 51.2239 10.5906 51.3463C10.6191 51.4687 10.6718 51.5827 10.745 51.6802C10.8183 51.7776 10.9102 51.8561 11.0143 51.9101C11.1184 51.9641 11.2321 51.9921 11.3472 51.9923H15.4816C15.6629 51.9921 15.8384 51.9228 15.9783 51.7963C16.1182 51.6697 16.2136 51.4938 16.2483 51.2986L17.1061 46.4561H20.0035C21.6415 46.4561 23.0208 46.2599 24.1025 45.8735C25.2145 45.4773 26.2377 44.8051 27.1433 43.8757C27.8725 43.1469 28.4913 42.2954 28.9765 41.3532C29.444 40.4355 29.7803 39.4109 29.975 38.3099C30.4587 35.58 30.0655 33.3946 28.8072 31.8146C27.5607 30.2488 25.6021 29.4551 22.9859 29.4551V29.4557ZM17.0442 42.3123H19.5592C21.2258 42.3123 22.4673 41.9686 23.2829 41.2785C24.0991 40.5898 24.6487 39.4393 24.9355 37.8278C25.2083 36.2799 25.084 35.1881 24.5615 34.5518C24.0378 33.9161 22.9915 33.5976 21.4205 33.5976H18.5877L17.0442 42.3123ZM22.9865 30.3111C25.3782 30.3111 27.1225 31.0005 28.2194 32.3775C29.3163 33.755 29.6459 35.6776 29.2094 38.1457C29.0283 39.1628 28.724 40.0923 28.2953 40.9341C27.8656 41.7772 27.3053 42.5475 26.6129 43.2467C25.7872 44.0941 24.8708 44.6984 23.8612 45.0582C22.852 45.4186 21.5662 45.5982 20.0041 45.5982H16.4626L15.4822 51.1344H11.3478L15.0367 30.3111H22.9865Z" fill="white"/>
<path d="M39.0707 46.0276C39.013 46.0277 38.9561 46.0137 38.9039 45.9868C38.8518 45.9599 38.8057 45.9206 38.769 45.8718C38.7323 45.823 38.7059 45.7659 38.6918 45.7046C38.6776 45.6433 38.676 45.5793 38.687 45.5172L40.3183 36.3038C40.4741 35.4274 40.4358 34.7991 40.2114 34.5325C40.0736 34.3702 39.6607 34.098 38.4395 34.098H35.483L33.4322 45.6814C33.4146 45.7789 33.3666 45.8667 33.2965 45.9297C33.2265 45.9928 33.1386 46.0272 33.048 46.027H28.9473C28.8897 46.027 28.8328 46.0131 28.7807 45.9862C28.7286 45.9593 28.6825 45.9201 28.6458 45.8714C28.6091 45.8227 28.5827 45.7657 28.5684 45.7044C28.5541 45.6432 28.5523 45.5793 28.5632 45.5172L32.252 24.6939C32.2695 24.5963 32.3173 24.5085 32.3873 24.4453C32.4573 24.3822 32.5451 24.3477 32.6357 24.3477H36.7363C36.7939 24.3476 36.8508 24.3615 36.9029 24.3884C36.955 24.4153 37.0011 24.4545 37.0378 24.5033C37.0745 24.552 37.101 24.609 37.1153 24.6702C37.1296 24.7314 37.1313 24.7954 37.1205 24.8575L36.2306 29.8838H39.4104C41.8331 29.8838 43.4756 30.3517 44.4324 31.3163C45.4072 32.2995 45.7121 33.8715 45.3369 35.9903L43.6207 45.6814C43.6031 45.7788 43.5553 45.8665 43.4853 45.9296C43.4154 45.9926 43.3276 46.027 43.2371 46.027H39.0707V46.0276Z" fill="black"/>
<path d="M36.737 23.9189H32.6358C32.4544 23.919 32.2787 23.9882 32.1388 24.1148C31.9988 24.2413 31.9033 24.4173 31.8686 24.6127L28.1802 45.4353C28.1584 45.5594 28.1618 45.6873 28.1901 45.8097C28.2185 45.9322 28.2712 46.0463 28.3445 46.1439C28.4177 46.2414 28.5097 46.32 28.6139 46.3739C28.718 46.4279 28.8318 46.456 28.9469 46.4562H33.0481C33.2295 46.4561 33.4052 46.3869 33.5452 46.2603C33.6851 46.1338 33.7807 45.9578 33.8154 45.7624L35.8049 34.5265H38.4386C39.6581 34.5265 39.9146 34.8123 39.9241 34.8253C39.9984 34.9117 40.0957 35.3159 39.9348 36.2226L38.3036 45.4353C38.2817 45.5595 38.2851 45.6874 38.3135 45.8099C38.3419 45.9324 38.3947 46.0465 38.468 46.1441C38.5413 46.2416 38.6334 46.3202 38.7376 46.3741C38.8418 46.4281 38.9556 46.4561 39.0708 46.4562H43.2378C43.4191 46.456 43.5947 46.3867 43.7345 46.2601C43.8744 46.1336 43.9698 45.9577 44.0045 45.7624L45.7207 36.0726C46.1229 33.7976 45.7786 32.0917 44.6969 31.0012C43.6642 29.9606 41.9351 29.4551 39.4106 29.4551H36.7049L37.5042 24.9404C37.5262 24.8162 37.5229 24.6882 37.4945 24.5656C37.4661 24.443 37.4134 24.3288 37.3401 24.2312C37.2668 24.1336 37.1747 24.055 37.0704 24.001C36.9661 23.947 36.8523 23.919 36.737 23.9189ZM36.737 24.7768L35.7566 30.3118H39.4106C41.7095 30.3118 43.2957 30.7524 44.1676 31.6326C45.0412 32.5127 45.3022 33.9377 44.954 35.9097L43.2372 45.5989H39.0708L40.7026 36.3855C40.8882 35.3375 40.8196 34.6228 40.4973 34.2414C40.175 33.8606 39.4887 33.6699 38.4397 33.6699H35.1609L33.0481 45.5983H28.9464L32.6352 24.775H36.737V24.7768Z" fill="white"/>
<path d="M51.8263 41.8844C53.3974 41.8844 54.5702 41.5665 55.3127 40.9401C56.0462 40.3192 56.5536 39.2447 56.8196 37.7461C57.0671 36.3451 56.9732 35.3675 56.5384 34.8392C56.0951 34.2998 55.1361 34.0264 53.6882 34.0264H51.1778L49.7856 41.8844H51.8263ZM43.6161 51.5637C43.5584 51.5638 43.5014 51.5499 43.4491 51.5229C43.3969 51.4959 43.3508 51.4566 43.3141 51.4077C43.2775 51.3589 43.2511 51.3017 43.237 51.2403C43.2229 51.1789 43.2213 51.1148 43.2324 51.0527L46.9208 30.23C46.9382 30.1325 46.986 30.0446 47.056 29.9815C47.126 29.9183 47.2138 29.8838 47.3044 29.8838H55.2542C57.7528 29.8838 59.6124 30.6281 60.7813 32.0964C61.9564 33.5715 62.3192 35.6354 61.8596 38.2282C61.684 39.2495 61.3614 40.2337 60.9039 41.1438C60.4383 42.0476 59.8443 42.8643 59.1444 43.5631C58.2838 44.4469 57.3079 45.0888 56.2493 45.4659C55.2075 45.8387 53.8688 46.0276 52.2718 46.0276H49.0526L48.1341 51.2169C48.1167 51.3146 48.0689 51.4027 47.9988 51.466C47.9287 51.5293 47.8407 51.5639 47.7499 51.5637H43.6161Z" fill="black"/>
<path d="M51.4998 34.4549H53.6885C55.4362 34.4549 56.0432 34.8758 56.249 35.127C56.5922 35.543 56.6563 36.4213 56.4363 37.6649C56.1888 39.0579 55.731 40.046 55.0745 40.6002C54.4023 41.1681 53.3088 41.4557 51.8272 41.4557H50.2601L51.4998 34.4549ZM55.254 29.4557H47.3042C47.123 29.4559 46.9474 29.5251 46.8076 29.6515C46.6678 29.7779 46.5723 29.9537 46.5375 30.1488L42.8486 50.9721C42.8268 51.0962 42.8303 51.224 42.8587 51.3465C42.8872 51.4689 42.94 51.5829 43.0133 51.6804C43.0866 51.7779 43.1786 51.8564 43.2828 51.9103C43.3869 51.9642 43.5007 51.9922 43.6158 51.9923H47.7502C47.9315 51.9921 48.1071 51.9228 48.2469 51.7963C48.3868 51.6697 48.4822 51.4938 48.5169 51.2986L49.3747 46.4561H52.2716C53.909 46.4561 55.2888 46.2599 56.37 45.8735C57.4826 45.4773 58.5058 44.8051 59.412 43.875C60.1409 43.1464 60.7595 42.2952 61.2446 41.3532C61.7126 40.4355 62.0478 39.4109 62.243 38.3099C62.7268 35.58 62.3342 33.3946 61.0753 31.8146C59.8288 30.2488 57.8707 29.4551 55.2534 29.4551L55.254 29.4557ZM49.3123 42.3123H51.8267C53.4939 42.3123 54.7348 41.9686 55.5515 41.2785C56.3672 40.5898 56.9173 39.4393 57.203 37.8278C57.477 36.2799 57.3527 35.1881 56.829 34.5518C56.3058 33.9161 55.259 33.5976 53.6885 33.5976H50.8563L49.3123 42.3123ZM55.254 30.3111C57.6452 30.3111 59.3906 31.0005 60.4869 32.3775C61.5838 33.755 61.914 35.6776 61.4763 38.1457C61.2963 39.1628 60.9915 40.0923 60.5628 40.9341C60.1337 41.7772 59.5728 42.5475 58.8798 43.2467C58.0547 44.0941 57.1378 44.6984 56.1281 45.0582C55.1195 45.4186 53.8342 45.5982 52.2716 45.5982H48.7307L47.7491 51.1344H43.6147L47.3036 30.3111H55.254Z" fill="white"/>
<defs>
<radialGradient id="paint0_radial_539_1222" cx="0" cy="0" r="1" gradientUnits="userSpaceOnUse" gradientTransform="translate(21.6146 26.0257) scale(47.2733 51.8693)">
<stop stop-color="#AEB2D5"/>
<stop offset="0.3" stop-color="#AEB2D5"/>
<stop offset="0.75" stop-color="#484C89"/>
<stop offset="1" stop-color="#484C89"/>
</radialGradient>
</defs>
</svg>
